:SAMPLES-PER-SECOND 30
:FULLY-SPECIFIED
:DEGREES
414
root  -83.9967 38.982 -3.27001 165.933 31.207 169.046
RightUpLeg  1.50964 6.4599 1.13863
RightLeg  32.5459 -0.699061 -0.745089
RightFoot  -20.9516 -1.19056 -12.4206
RightToes  1.45519e-009 0 -3.6325e-017
Spine  8.34305 -3.51271 3.54864
Spine1  11.1175 -3.73546 8.10289
HEad  -47.1026 -15.3832 9.4577
LeftShoulder1  0.231915 2.72156 -23.4478
LeftArm  7.06934 -3.75774 -64.6699
LeftForeArm  26.0896 -16.3406 -6.74278
LeftHand  -0.0261059 8.89622 0.735
RightShoulder  -0.566961 -5.40546 23.0296
RightArm  9.81393 -2.39883 39.9259
RightForeArm  2.09087 21.059 4.5284
RightHand  -0.48768 7.50434 -4.75584
LeftUpLeg  -6.87765 1.07404 -0.666874
LeftLeg  67.4392 3.06639 8.85231
LeftFoot  11.6148 1.11881 -5.86056
LeftToes  -2.53752e-010 -2.07034e-011 -2.70101e-011
415
root  -83.9028 39.0901 -3.79221 165.411 36.4692 168.109
RightUpLeg  1.92469 10.0625 1.06453
RightLeg  32.1859 0.85208 0.312735
RightFoot  -20.7422 -1.14783 -12.2044
RightToes  1.45519e-009 0 -3.6325e-017
Spine  9.31623 -3.25237 3.99622
Spine1  10.2385 -3.43209 7.88883
HEad  -48.3181 -15.8375 10.1604
LeftShoulder1  0.359546 2.25737 -22.4446
LeftArm  11.0647 -3.87991 -65.5557
LeftForeArm  23.1316 -19.3488 -5.26646
LeftHand  -0.0145788 8.82697 1.07447
RightShoulder  -0.508234 -5.22594 22.6673
RightArm  10.2957 -2.85267 40.0282
RightForeArm  2.1576 20.3553 4.47431
RightHand  -0.353043 7.06405 -3.68982
LeftUpLeg  -8.9455 0.612757 -0.706429
LeftLeg  66.4073 1.59148 4.70418
LeftFoot  9.05787 1.00805 -5.91992
LeftToes  -2.53752e-010 -2.07034e-011 -2.70101e-011
416
root  -83.7396 39.1707 -4.34712 165.051 41.2675 166.802
RightUpLeg  1.99985 13.2885 0.504758
RightLeg  31.5995 2.57411 1.44319
RightFoot  -20.7197 -1.17651 -12.581
RightToes  1.45519e-009 0 -3.6325e-017
Spine  9.60637 -3.03135 3.69458
Spine1  9.62774 -3.50036 8.31852
HEad  -49.5264 -15.1741 9.49479
LeftShoulder1  0.341365 2.31695 -22.3996
LeftArm  13.9794 -4.46566 -65.3958
LeftForeArm  21.4437 -21.8316 -4.2766
LeftHand  -0.0137544 8.88535 1.056
RightShoulder  -0.484347 -5.17663 22.088
RightArm  11.3031 -3.10176 40.2
RightForeArm  2.92457 19.7173 4.48621
RightHand  -0.356034 4.76828 -4.34128
LeftUpLeg  -11.5514 0.364715 -1.23402
LeftLeg  64.7902 1.06919 3.15706
LeftFoot  8.00954 1.17672 -7.17746
LeftToes  -2.53752e-010 -2.07034e-011 -2.70101e-011
417
root  -83.4887 39.2553 -4.9213 164.458 45.5105 165.903
RightUpLeg  2.89583 15.9434 0.427879
RightLeg  30.5808 4.02589 2.31258
RightFoot  -20.5858 -1.19019 -12.9394
RightToes  1.45519e-009 0 -3.6325e-017
Spine  10.3728 -2.97423 3.71851
Spine1  8.70757 -3.58866 8.55542
HEad  -49.587 -14.3028 8.87273
LeftShoulder1  0.373034 2.19934 -22.2192
LeftArm  14.2008 -4.4902 -64.7635
LeftForeArm  21.2106 -24.1995 -3.98807
LeftHand  0.00585848 9.30242 1.42864
RightShoulder  -0.565016 -5.44937 22.2383
RightArm  12.9489 -2.78943 39.6437
RightForeArm  1.9991 17.888 4.73006
RightHand  -0.38805 6.85114 -4.0367
LeftUpLeg  -13.5007 0.0888487 -1.46785
LeftLeg  62.2176 0.611935 1.86166
LeftFoot  7.14066 1.26662 -8.04942
LeftToes  -2.53752e-010 -2.07034e-011 -2.70101e-011
418
root  -83.2052 39.3293 -5.51542 163.852 49.2281 164.58
RightUpLeg  3.39551 18.487 -0.0693941
RightLeg  29.7705 5.2265 2.97345
RightFoot  -20.564 -1.20796 -13.1892
RightToes  1.45519e-009 0 -3.6325e-017
Spine  10.6891 -2.89804 3.20267
Spine1  8.05368 -3.85633 9.07435
HEad  -47.3877 -9.28138 9.34177
LeftShoulder1  0.397607 2.11431 -22.2396
LeftArm  11.4779 -4.55422 -64.3432
LeftForeArm  23.8409 -25.4909 -4.19787
LeftHand  -0.0426945 7.70211 -0.0381283
RightShoulder  -0.553326 -5.40785 22.2363
RightArm  12.8991 -3.25067 38.9301
RightForeArm  3.43187 16.6842 4.82806
RightHand  -0.315284 7.56654 -3.17821
LeftUpLeg  -15.7674 -0.833061 -2.26911
LeftLeg  58.9992 0.695981 1.7708
LeftFoot  5.09711 1.20647 -8.54716
LeftToes  -2.53752e-010 -2.07034e-011 -2.70101e-011
419
root  -82.8707 39.3987 -6.07713 162.87 52.7822 163.528
RightUpLeg  4.65148 20.2902 -0.290488
RightLeg  28.6066 6.77958 3.74616
RightFoot  -20.4516 -1.21259 -13.419
RightToes  1.45519e-009 0 -3.6325e-017
Spine  11.5234 -2.82432 2.75459
Spine1  7.84398 -4.14416 9.48365
HEad  -47.1606 -8.6351 9.80641
LeftShoulder1  0.387757 2.12111 -21.6405
LeftArm  9.68068 -4.49901 -64.5272
LeftForeArm  24.0907 -26.7133 -4.44907
LeftHand  -0.0187494 8.45229 0.993287
RightShoulder  -0.427281 -4.99849 21.658
RightArm  11.7831 -4.41371 38.9763
RightForeArm  4.66002 16.0489 4.72377
RightHand  -0.289741 6.6418 -3.12929
LeftUpLeg  -17.3094 -2.01304 -2.82118
LeftLeg  54.8553 1.00304 2.0511
LeftFoot  2.63932 1.01344 -8.38797
LeftToes  -2.53752e-010 -2.07034e-011 -2.70101e-011
420
root  -82.5356 39.4475 -6.62259 161.615 56.172 162.742
RightUpLeg  6.30613 21.7195 -0.196255
RightLeg  27.5023 8.52753 4.55561
RightFoot  -20.2153 -1.20747 -13.728
RightToes  1.45519e-009 0 -3.6325e-017
Spine  13.1842 -2.58613 2.57128
Spine1  7.67485 -4.17635 9.80583
HEad  -49.9981 -12.6613 9.32544
LeftShoulder1  0.430396 1.91033 -20.5639
LeftArm  8.12006 -4.61098 -65.2547
LeftForeArm  24.524 -27.26 -4.54754
LeftHand  -0.0129887 7.07688 1.42163
RightShoulder  -0.336197 -4.70168 20.9985
RightArm  10.2401 -5.28581 39.3214
RightForeArm  4.19697 13.99 4.84242
RightHand  -0.391267 8.06744 -3.74573
LeftUpLeg  -18.0496 -3.36908 -2.9845
LeftLeg  49.3689 0.543743 1.08285
LeftFoot  1.17893 0.900914 -8.26917
LeftToes  -2.53752e-010 -2.07034e-011 -2.70101e-011
